<svg width="2051" height="387" fill="none" xmlns="http://www.w3.org/2000/svg"><path d="M0 32c0-11.201 0-16.802 2.18-21.08a20 20 0 0 1 8.74-8.74C15.198 0 20.8 0 32 0h323c11.201 0 16.802 0 21.08 2.18a19.998 19.998 0 0 1 8.74 8.74C387 15.198 387 20.8 387 32v355H32c-11.201 0-16.802 0-21.08-2.18a19.998 19.998 0 0 1-8.74-8.74C0 371.802 0 366.201 0 355V32Z" fill="#E7DEED"/><path d="M387 387 198.206 0h345.578c14.782 0 24.456 15.483 17.975 28.769L387 387ZM730 131.25h-58V290h-24.125V131.25H589.75v-20.375H730v20.375ZM791.391 233c-10.25.333-19 1.167-26.25 2.5-7.167 1.25-13.042 2.917-17.625 5-4.5 2.083-7.792 4.542-9.875 7.375-2 2.833-3 6-3 9.5 0 3.333.541 6.208 1.625 8.625 1.083 2.417 2.541 4.417 4.375 6 1.916 1.5 4.125 2.625 6.625 3.375 2.583.667 5.333 1 8.25 1 3.916 0 7.5-.375 10.75-1.125 3.25-.833 6.291-2 9.125-3.5a48.382 48.382 0 0 0 8.25-5.375c2.666-2.083 5.25-4.458 7.75-7.125V233Zm-71.875-51.75c7-6.75 14.541-11.792 22.625-15.125 8.083-3.333 17.041-5 26.875-5 7.083 0 13.375 1.167 18.875 3.5s10.125 5.583 13.875 9.75 6.583 9.208 8.5 15.125c1.916 5.917 2.875 12.417 2.875 19.5v81h-9.875c-2.167 0-3.834-.333-5-1-1.167-.75-2.084-2.167-2.75-4.25l-2.5-12c-3.334 3.083-6.584 5.833-9.75 8.25a61.2 61.2 0 0 1-10 6c-3.5 1.583-7.25 2.792-11.25 3.625-3.917.917-8.292 1.375-13.125 1.375-4.917 0-9.542-.667-13.875-2-4.334-1.417-8.125-3.5-11.375-6.25-3.167-2.75-5.709-6.208-7.625-10.375-1.834-4.25-2.75-9.25-2.75-15 0-5 1.375-9.792 4.125-14.375 2.75-4.667 7.208-8.792 13.375-12.375 6.166-3.583 14.208-6.5 24.125-8.75 9.916-2.333 22.083-3.667 36.5-4V209c0-9.833-2.125-17.25-6.375-22.25-4.25-5.083-10.459-7.625-18.625-7.625-5.5 0-10.125.708-13.875 2.125-3.667 1.333-6.875 2.875-9.625 4.625-2.667 1.667-5 3.208-7 4.625-1.917 1.333-3.834 2-5.75 2-1.5 0-2.792-.375-3.875-1.125-1.084-.833-2-1.833-2.75-3l-4-7.125ZM953.354 163.375l-70.625 164c-.75 1.667-1.709 3-2.875 4-1.084 1-2.792 1.5-5.125 1.5h-16.5l23.125-50.25-52.25-119.25h19.25c1.916 0 3.416.5 4.5 1.5 1.166.917 1.958 1.958 2.375 3.125l33.875 79.75a89.162 89.162 0 0 1 3.375 11 157.104 157.104 0 0 1 3.75-11.125L929.104 168a6.88 6.88 0 0 1 2.5-3.25c1.25-.917 2.625-1.375 4.125-1.375h17.625ZM996.01 105.875V290h-22.25V105.875h22.25ZM1085.47 161.375c9.25 0 17.58 1.542 25 4.625 7.41 3.083 13.75 7.458 19 13.125s9.25 12.542 12 20.625c2.83 8 4.25 16.958 4.25 26.875 0 10-1.42 19-4.25 27-2.75 8-6.75 14.833-12 20.5s-11.59 10.042-19 13.125c-7.42 3-15.75 4.5-25 4.5-9.34 0-17.75-1.5-25.25-4.5-7.42-3.083-13.75-7.458-19-13.125s-9.29-12.5-12.13-20.5c-2.75-8-4.12-17-4.12-27 0-9.917 1.37-18.875 4.12-26.875 2.84-8.083 6.88-14.958 12.13-20.625 5.25-5.667 11.58-10.042 19-13.125 7.5-3.083 15.91-4.625 25.25-4.625Zm0 113c12.5 0 21.83-4.167 28-12.5 6.16-8.417 9.25-20.125 9.25-35.125 0-15.083-3.09-26.833-9.25-35.25-6.17-8.417-15.5-12.625-28-12.625-6.34 0-11.88 1.083-16.63 3.25-4.66 2.167-8.58 5.292-11.75 9.375-3.08 4.083-5.41 9.125-7 15.125-1.5 5.917-2.25 12.625-2.25 20.125 0 15 3.09 26.708 9.25 35.125 6.25 8.333 15.71 12.5 28.38 12.5ZM1195.06 188.75c4-8.667 8.92-15.417 14.75-20.25 5.84-4.917 12.96-7.375 21.38-7.375 2.66 0 5.21.292 7.62.875 2.5.583 4.71 1.5 6.63 2.75l-1.63 16.625c-.5 2.083-1.75 3.125-3.75 3.125-1.16 0-2.87-.25-5.12-.75s-4.79-.75-7.63-.75c-4 0-7.58.583-10.75 1.75-3.08 1.167-5.87 2.917-8.37 5.25-2.42 2.25-4.63 5.083-6.63 8.5-1.91 3.333-3.66 7.167-5.25 11.5v80h-22.37V163.375h12.75c2.41 0 4.08.458 5 1.375.91.917 1.54 2.5 1.87 4.75l1.5 19.25ZM1515.22 110.875V290h-21.25V158.375c0-1.75.04-3.625.13-5.625.16-2 .33-4.042.5-6.125l-61.5 112c-1.92 3.75-4.84 5.625-8.75 5.625h-3.5c-3.92 0-6.84-1.875-8.75-5.625l-62.75-112.5c.5 4.417.75 8.5.75 12.25V290h-21.25V110.875h17.87c2.17 0 3.83.208 5 .625 1.17.417 2.29 1.583 3.38 3.5l61.87 110.25c1 2 1.96 4.083 2.88 6.25 1 2.167 1.91 4.375 2.75 6.625.83-2.25 1.7-4.458 2.62-6.625.92-2.25 1.92-4.375 3-6.375L1488.97 115c1-1.917 2.08-3.083 3.25-3.5 1.25-.417 2.96-.625 5.13-.625h17.87ZM1620.74 233c-10.25.333-19 1.167-26.25 2.5-7.17 1.25-13.05 2.917-17.63 5-4.5 2.083-7.79 4.542-9.87 7.375-2 2.833-3 6-3 9.5 0 3.333.54 6.208 1.62 8.625s2.54 4.417 4.38 6c1.91 1.5 4.12 2.625 6.62 3.375 2.58.667 5.33 1 8.25 1 3.92 0 7.5-.375 10.75-1.125 3.25-.833 6.29-2 9.13-3.5 2.91-1.5 5.66-3.292 8.25-5.375a68.714 68.714 0 0 0 7.75-7.125V233Zm-71.88-51.75c7-6.75 14.54-11.792 22.63-15.125 8.08-3.333 17.04-5 26.87-5 7.08 0 13.38 1.167 18.88 3.5 5.5 2.333 10.12 5.583 13.87 9.75s6.58 9.208 8.5 15.125 2.88 12.417 2.88 19.5v81h-9.88c-2.17 0-3.83-.333-5-1-1.17-.75-2.08-2.167-2.75-4.25l-2.5-12c-3.33 3.083-6.58 5.833-9.75 8.25a61.327 61.327 0 0 1-10 6c-3.5 1.583-7.25 2.792-11.25 3.625-3.92.917-8.29 1.375-13.12 1.375-4.92 0-9.55-.667-13.88-2-4.33-1.417-8.12-3.5-11.37-6.25-3.17-2.75-5.71-6.208-7.63-10.375-1.83-4.25-2.75-9.25-2.75-15 0-5 1.38-9.792 4.13-14.375 2.75-4.667 7.2-8.792 13.37-12.375 6.17-3.583 14.21-6.5 24.13-8.75 9.91-2.333 22.08-3.667 36.5-4V209c0-9.833-2.13-17.25-6.38-22.25-4.25-5.083-10.46-7.625-18.62-7.625-5.5 0-10.13.708-13.88 2.125-3.67 1.333-6.87 2.875-9.62 4.625-2.67 1.667-5 3.208-7 4.625-1.92 1.333-3.84 2-5.75 2-1.5 0-2.8-.375-3.88-1.125a11.86 11.86 0 0 1-2.75-3l-4-7.125ZM1758.88 193.5c-4.17-5.583-8.67-9.458-13.5-11.625-4.83-2.25-10.25-3.375-16.25-3.375-11.75 0-20.79 4.208-27.13 12.625-6.33 8.417-9.5 20.417-9.5 36 0 8.25.71 15.333 2.13 21.25 1.42 5.833 3.5 10.667 6.25 14.5 2.75 3.75 6.12 6.5 10.12 8.25 4 1.75 8.55 2.625 13.63 2.625 7.33 0 13.71-1.667 19.12-5 5.5-3.333 10.55-8.042 15.13-14.125V193.5Zm22.25-87.625V290h-13.25c-3.17 0-5.17-1.542-6-4.625l-2-15.375c-5.42 6.5-11.58 11.75-18.5 15.75s-14.92 6-24 6c-7.25 0-13.83-1.375-19.75-4.125-5.92-2.833-10.96-6.958-15.13-12.375-4.16-5.417-7.37-12.167-9.62-20.25-2.25-8.083-3.38-17.375-3.38-27.875 0-9.333 1.25-18 3.75-26 2.5-8.083 6.09-15.083 10.75-21 4.67-5.917 10.38-10.542 17.13-13.875 6.83-3.417 14.5-5.125 23-5.125 7.75 0 14.37 1.333 19.87 4 5.59 2.583 10.55 6.208 14.88 10.875v-70.125h22.25ZM1901.02 212.875c0-5.167-.75-9.875-2.25-14.125-1.42-4.333-3.54-8.042-6.37-11.125-2.75-3.167-6.13-5.583-10.13-7.25-4-1.75-8.54-2.625-13.62-2.625-10.67 0-19.13 3.125-25.38 9.375-6.17 6.167-10 14.75-11.5 25.75h69.25Zm18 59.375c-2.75 3.333-6.04 6.25-9.87 8.75a63.054 63.054 0 0 1-12.38 6 72.874 72.874 0 0 1-13.5 3.5c-4.67.833-9.29 1.25-13.87 1.25-8.75 0-16.84-1.458-24.25-4.375-7.34-3-13.71-7.333-19.13-13-5.33-5.75-9.5-12.833-12.5-21.25s-4.5-18.083-4.5-29c0-8.833 1.33-17.083 4-24.75 2.75-7.667 6.67-14.292 11.75-19.875 5.08-5.667 11.29-10.083 18.63-13.25 7.33-3.25 15.58-4.875 24.75-4.875 7.58 0 14.58 1.292 21 3.875 6.5 2.5 12.08 6.167 16.75 11 4.75 4.75 8.45 10.667 11.12 17.75 2.67 7 4 15 4 24 0 3.5-.37 5.833-1.12 7-.75 1.167-2.17 1.75-4.25 1.75h-84.63c.25 8 1.33 14.958 3.25 20.875 2 5.917 4.75 10.875 8.25 14.875 3.5 3.917 7.67 6.875 12.5 8.875 4.83 1.917 10.25 2.875 16.25 2.875 5.58 0 10.38-.625 14.38-1.875 4.08-1.333 7.58-2.75 10.5-4.25 2.91-1.5 5.33-2.875 7.25-4.125 2-1.333 3.7-2 5.12-2 1.83 0 3.25.708 4.25 2.125l6.25 8.125Z" fill="#51A1EA"/></svg>