<svg width="266" height="48" viewBox="0 0 266 48" fill="none" xmlns="http://www.w3.org/2000/svg">
<path d="M0 12.8C0 8.31958 0 6.07937 0.871948 4.36808C1.63893 2.86278 2.86278 1.63893 4.36808 0.871948C6.07937 0 8.31958 0 12.8 0H34.2C38.6804 0 40.9206 0 42.6319 0.871948C44.1372 1.63893 45.3611 2.86278 46.1281 4.36808C47 6.07937 47 8.31958 47 12.8V48H12.8C8.31958 48 6.07937 48 4.36808 47.1281C2.86278 46.3611 1.63893 45.1372 0.871948 43.6319C0 41.9206 0 39.6804 0 35.2V12.8Z" fill="#442E52"/>
<path d="M47 48L23 0L50.0303 0C57.1204 0 60.6655 0 62.7733 1.53898C64.4593 2.77003 65.5973 4.61139 65.9444 6.66996C66.3783 9.24344 64.7929 12.4143 61.6221 18.7559L47 48Z" fill="#51A1EA"/>
<path d="M91.5144 15.5082H83.0307V38.7286H79.502V15.5082H71V12.528H91.5144V15.5082Z" fill="#51A1EA"/>
<path d="M100.494 30.3912C98.9947 30.44 97.7149 30.5619 96.6544 30.7569C95.6061 30.9397 94.7468 31.1835 94.0764 31.4882C93.4182 31.793 92.9367 32.1526 92.632 32.567C92.3394 32.9814 92.1932 33.4446 92.1932 33.9566C92.1932 34.4441 92.2724 34.8646 92.4309 35.2181C92.5893 35.5716 92.8026 35.8642 93.0708 36.0958C93.3511 36.3152 93.6742 36.4797 94.0398 36.5894C94.4177 36.6869 94.8199 36.7357 95.2466 36.7357C95.8194 36.7357 96.3436 36.6808 96.819 36.5711C97.2943 36.4492 97.7392 36.2786 98.1537 36.0592C98.5803 35.8398 98.9825 35.5777 99.3604 35.273C99.7505 34.9683 100.128 34.6209 100.494 34.2308V30.3912ZM89.9808 22.8217C91.0047 21.8344 92.1078 21.097 93.2902 20.6094C94.4725 20.1218 95.7829 19.8781 97.2212 19.8781C98.2573 19.8781 99.1776 20.0487 99.9821 20.39C100.787 20.7313 101.463 21.2067 102.012 21.8161C102.56 22.4256 102.974 23.163 103.255 24.0285C103.535 24.8939 103.675 25.8447 103.675 26.8807V38.7286H102.231C101.914 38.7286 101.67 38.6799 101.5 38.5823C101.329 38.4726 101.195 38.2654 101.097 37.9607L100.732 36.2055C100.244 36.6565 99.7687 37.0587 99.3056 37.4122C98.8424 37.7535 98.3548 38.046 97.8429 38.2898C97.3309 38.5214 96.7824 38.6981 96.1973 38.82C95.6244 38.9541 94.9845 39.0212 94.2775 39.0212C93.5584 39.0212 92.8819 38.9236 92.248 38.7286C91.6142 38.5214 91.0596 38.2167 90.5842 37.8144C90.121 37.4122 89.7492 36.9063 89.4689 36.2969C89.2007 35.6752 89.0666 34.9439 89.0666 34.1028C89.0666 33.3715 89.2678 32.6706 89.67 32.0002C90.0723 31.3176 90.7244 30.7142 91.6264 30.1901C92.5284 29.666 93.7046 29.2393 95.1551 28.9102C96.6056 28.5689 98.3853 28.3739 100.494 28.3252V26.8807C100.494 25.4424 100.183 24.3576 99.5615 23.6262C98.9399 22.8827 98.0318 22.5109 96.8372 22.5109C96.0328 22.5109 95.3563 22.6145 94.8077 22.8217C94.2714 23.0168 93.8021 23.2423 93.3999 23.4982C93.0098 23.742 92.6685 23.9675 92.376 24.1747C92.0957 24.3698 91.8153 24.4673 91.535 24.4673C91.3155 24.4673 91.1266 24.4124 90.9682 24.3027C90.8097 24.1808 90.6756 24.0346 90.5659 23.8639L89.9808 22.8217Z" fill="#51A1EA"/>
<path d="M124.184 20.2072L113.854 44.1955C113.744 44.4392 113.604 44.6343 113.433 44.7805C113.275 44.9268 113.025 44.9999 112.684 44.9999H110.27L113.653 37.6499L106.01 20.2072H108.826C109.106 20.2072 109.326 20.2803 109.484 20.4266C109.655 20.5606 109.771 20.713 109.832 20.8837L114.786 32.5487C114.981 33.0606 115.146 33.597 115.28 34.1577C115.451 33.5848 115.634 33.0424 115.829 32.5304L120.637 20.8837C120.71 20.6886 120.832 20.5302 121.003 20.4083C121.186 20.2742 121.387 20.2072 121.606 20.2072H124.184Z" fill="#51A1EA"/>
<path d="M130.424 11.7966V38.7286H127.169V11.7966H130.424Z" fill="#51A1EA"/>
<path d="M143.509 19.9146C144.862 19.9146 146.08 20.1401 147.165 20.5911C148.25 21.0421 149.177 21.6821 149.944 22.5109C150.712 23.3398 151.297 24.3454 151.7 25.5277C152.114 26.6979 152.321 28.0082 152.321 29.4587C152.321 30.9214 152.114 32.2379 151.7 33.408C151.297 34.5782 150.712 35.5777 149.944 36.4066C149.177 37.2354 148.25 37.8754 147.165 38.3264C146.08 38.7652 144.862 38.9846 143.509 38.9846C142.143 38.9846 140.912 38.7652 139.815 38.3264C138.73 37.8754 137.804 37.2354 137.036 36.4066C136.268 35.5777 135.677 34.5782 135.263 33.408C134.86 32.2379 134.659 30.9214 134.659 29.4587C134.659 28.0082 134.86 26.6979 135.263 25.5277C135.677 24.3454 136.268 23.3398 137.036 22.5109C137.804 21.6821 138.73 21.0421 139.815 20.5911C140.912 20.1401 142.143 19.9146 143.509 19.9146ZM143.509 36.4431C145.337 36.4431 146.702 35.8337 147.604 34.6148C148.506 33.3837 148.957 31.6711 148.957 29.477C148.957 27.2708 148.506 25.5521 147.604 24.321C146.702 23.0899 145.337 22.4743 143.509 22.4743C142.582 22.4743 141.772 22.6328 141.077 22.9497C140.394 23.2666 139.821 23.7237 139.358 24.321C138.907 24.9183 138.566 25.6557 138.334 26.5333C138.115 27.3988 138.005 28.38 138.005 29.477C138.005 31.6711 138.456 33.3837 139.358 34.6148C140.272 35.8337 141.656 36.4431 143.509 36.4431Z" fill="#51A1EA"/>
<path d="M159.539 23.9188C160.124 22.6511 160.843 21.6638 161.697 20.9568C162.55 20.2376 163.592 19.8781 164.823 19.8781C165.213 19.8781 165.585 19.9207 165.938 20.006C166.304 20.0914 166.627 20.2254 166.907 20.4083L166.67 22.84C166.597 23.1448 166.414 23.2971 166.121 23.2971C165.951 23.2971 165.701 23.2606 165.372 23.1874C165.043 23.1143 164.671 23.0777 164.256 23.0777C163.671 23.0777 163.147 23.163 162.684 23.3337C162.233 23.5043 161.825 23.7603 161.459 24.1016C161.105 24.4307 160.782 24.8451 160.49 25.3449C160.21 25.8325 159.954 26.3932 159.722 27.027V38.7286H156.449V20.2072H158.314C158.668 20.2072 158.911 20.2742 159.045 20.4083C159.18 20.5424 159.271 20.774 159.32 21.1031L159.539 23.9188Z" fill="#51A1EA"/>
<path d="M206.369 12.528V38.7286H203.26V19.4758C203.26 19.2198 203.267 18.9456 203.279 18.653C203.303 18.3605 203.328 18.0619 203.352 17.7571L194.356 34.1394C194.076 34.6879 193.649 34.9622 193.076 34.9622H192.564C191.992 34.9622 191.565 34.6879 191.285 34.1394L182.106 17.684C182.179 18.33 182.216 18.9273 182.216 19.4758V38.7286H179.108V12.528H181.722C182.039 12.528 182.283 12.5585 182.454 12.6194C182.624 12.6803 182.789 12.851 182.947 13.1313L191.998 29.2576C192.144 29.5502 192.284 29.8549 192.418 30.1718C192.564 30.4887 192.699 30.8117 192.82 31.1409C192.942 30.8117 193.07 30.4887 193.204 30.1718C193.338 29.8427 193.485 29.5319 193.643 29.2393L202.529 13.1313C202.675 12.851 202.834 12.6803 203.004 12.6194C203.187 12.5585 203.437 12.528 203.754 12.528H206.369Z" fill="#51A1EA"/>
<path d="M221.802 30.3912C220.303 30.44 219.023 30.5619 217.963 30.7569C216.915 30.9397 216.055 31.1835 215.385 31.4882C214.727 31.793 214.245 32.1526 213.94 32.567C213.648 32.9814 213.502 33.4446 213.502 33.9566C213.502 34.4441 213.581 34.8646 213.739 35.2181C213.898 35.5716 214.111 35.8642 214.379 36.0958C214.66 36.3152 214.983 36.4797 215.348 36.5894C215.726 36.6869 216.128 36.7357 216.555 36.7357C217.128 36.7357 217.652 36.6808 218.127 36.5711C218.603 36.4492 219.048 36.2786 219.462 36.0592C219.889 35.8398 220.291 35.5777 220.669 35.273C221.059 34.9683 221.437 34.6209 221.802 34.2308V30.3912ZM211.289 22.8217C212.313 21.8344 213.416 21.097 214.599 20.6094C215.781 20.1218 217.091 19.8781 218.53 19.8781C219.566 19.8781 220.486 20.0487 221.291 20.39C222.095 20.7313 222.772 21.2067 223.32 21.8161C223.869 22.4256 224.283 23.163 224.563 24.0285C224.844 24.8939 224.984 25.8447 224.984 26.8807V38.7286H223.539C223.223 38.7286 222.979 38.6799 222.808 38.5823C222.637 38.4726 222.503 38.2654 222.406 37.9607L222.04 36.2055C221.553 36.6565 221.077 37.0587 220.614 37.4122C220.151 37.7535 219.663 38.046 219.151 38.2898C218.639 38.5214 218.091 38.6981 217.506 38.82C216.933 38.9541 216.293 39.0212 215.586 39.0212C214.867 39.0212 214.19 38.9236 213.557 38.7286C212.923 38.5214 212.368 38.2167 211.893 37.8144C211.429 37.4122 211.058 36.9063 210.777 36.2969C210.509 35.6752 210.375 34.9439 210.375 34.1028C210.375 33.3715 210.576 32.6706 210.979 32.0002C211.381 31.3176 212.033 30.7142 212.935 30.1901C213.837 29.666 215.013 29.2393 216.464 28.9102C217.914 28.5689 219.694 28.3739 221.802 28.3252V26.8807C221.802 25.4424 221.492 24.3576 220.87 23.6262C220.248 22.8827 219.34 22.5109 218.146 22.5109C217.341 22.5109 216.665 22.6145 216.116 22.8217C215.58 23.0168 215.111 23.2423 214.708 23.4982C214.318 23.742 213.977 23.9675 213.684 24.1747C213.404 24.3698 213.124 24.4673 212.843 24.4673C212.624 24.4673 212.435 24.4124 212.277 24.3027C212.118 24.1808 211.984 24.0346 211.874 23.8639L211.289 22.8217Z" fill="#51A1EA"/>
<path d="M242.009 24.6136C241.399 23.7969 240.741 23.2301 240.034 22.9132C239.327 22.5841 238.535 22.4195 237.657 22.4195C235.938 22.4195 234.616 23.0351 233.689 24.2662C232.763 25.4973 232.3 27.2525 232.3 29.5319C232.3 30.7386 232.404 31.7747 232.611 32.6401C232.818 33.4934 233.123 34.2003 233.525 34.761C233.927 35.3096 234.421 35.7118 235.006 35.9678C235.591 36.2237 236.255 36.3517 236.999 36.3517C238.072 36.3517 239.004 36.1079 239.796 35.6204C240.601 35.1328 241.338 34.4441 242.009 33.5543V24.6136ZM245.263 11.7966V38.7286H243.325C242.862 38.7286 242.569 38.5031 242.447 38.0521L242.155 35.8032C241.363 36.754 240.461 37.5219 239.449 38.107C238.437 38.692 237.267 38.9846 235.938 38.9846C234.878 38.9846 233.915 38.7835 233.05 38.3812C232.184 37.9668 231.447 37.3634 230.837 36.5711C230.228 35.7788 229.758 34.7915 229.429 33.6092C229.1 32.4268 228.936 31.0677 228.936 29.5319C228.936 28.1667 229.119 26.899 229.484 25.7289C229.85 24.5465 230.374 23.5226 231.057 22.6572C231.739 21.7918 232.574 21.1153 233.562 20.6277C234.561 20.1279 235.682 19.8781 236.926 19.8781C238.059 19.8781 239.028 20.0731 239.833 20.4631C240.65 20.841 241.375 21.3712 242.009 22.0538V11.7966H245.263Z" fill="#51A1EA"/>
<path d="M262.8 27.4475C262.8 26.6918 262.69 26.0031 262.471 25.3815C262.264 24.7476 261.953 24.2052 261.538 23.7542C261.136 23.291 260.642 22.9375 260.057 22.6938C259.472 22.4378 258.808 22.3098 258.064 22.3098C256.504 22.3098 255.267 22.7669 254.353 23.6811C253.451 24.5831 252.89 25.8386 252.671 27.4475H262.8ZM265.433 36.1323C265.03 36.6199 264.549 37.0465 263.988 37.4122C263.428 37.7657 262.824 38.0582 262.178 38.2898C261.544 38.5214 260.886 38.692 260.204 38.8018C259.521 38.9236 258.844 38.9846 258.174 38.9846C256.894 38.9846 255.712 38.7713 254.627 38.3447C253.554 37.9058 252.622 37.272 251.83 36.4431C251.049 35.6021 250.44 34.566 250.001 33.3349C249.562 32.1038 249.343 30.6899 249.343 29.0931C249.343 27.801 249.538 26.5943 249.928 25.4729C250.33 24.3515 250.903 23.3824 251.647 22.5658C252.39 21.7369 253.298 21.0909 254.371 20.6277C255.444 20.1523 256.65 19.9146 257.991 19.9146C259.1 19.9146 260.124 20.1036 261.063 20.4814C262.014 20.8471 262.83 21.3834 263.513 22.0904C264.208 22.7852 264.75 23.6506 265.14 24.6867C265.53 25.7106 265.725 26.8807 265.725 28.1972C265.725 28.7091 265.67 29.0504 265.561 29.2211C265.451 29.3917 265.244 29.477 264.939 29.477H252.561C252.597 30.6472 252.756 31.665 253.036 32.5304C253.329 33.3959 253.731 34.1211 254.243 34.7062C254.755 35.2791 255.364 35.7118 256.071 36.0043C256.778 36.2847 257.571 36.4249 258.448 36.4249C259.265 36.4249 259.966 36.3334 260.551 36.1506C261.148 35.9556 261.66 35.7484 262.087 35.529C262.513 35.3096 262.867 35.1084 263.147 34.9256C263.44 34.7306 263.69 34.6331 263.897 34.6331C264.165 34.6331 264.372 34.7367 264.518 34.9439L265.433 36.1323Z" fill="#51A1EA"/>
</svg>
